# xmcd CD database file
#
# Track frame offsets:
#	150
#	17452
#	35516
#	51163
#	68624
#	93616
#	106043
#	123581
#	137229
#	157705
#	176992
#	193937
#
# Disc length: 2803 seconds
#
# Revision: 2
# Processed by: cddbd v1.5.2PL0 Copyright (c) Steve Scherf et al.
# Submitted via: CDex 1.51
#
DISCID=9f0af10c
DTITLE=Caro Emerald - Deleted Scenes From The Cutting Room Floor
DYEAR=2010
DGENRE=Swing
TTITLE0=That Man
TTITLE1=Just One Dance
TTITLE2=Riviera Life
TTITLE3=Back It Up
TTITLE4=The Other Woman
TTITLE5=Absolutely Me
TTITLE6=You Dont Love Me
TTITLE7=Dr. Wanna Do
TTITLE8=Stuck
TTITLE9=I Know That He's Mine
TTITLE10=A Night Like This
TTITLE11=The Lipstick On His Collar
EXTD=YEAR: 2010
EXTT0=
EXTT1=
EXTT2=
EXTT3=
EXTT4=
EXTT5=
EXTT6=
EXTT7=
EXTT8=
EXTT9=
EXTT10=
EXTT11=
PLAYORDER=
